<svg width="1440" height="2226" viewBox="0 0 1440 2226" fill="none" xmlns="http://www.w3.org/2000/svg">
<g filter="url(#filter0_d)">
<path d="M-128.85 187.84C-180.505 183.439 -191.779 209.68 -190.959 223.351L-190.959 2464H1676C1674.57 2270.28 1666.28 192.642 1644.64 177.838C1617.58 159.332 1620.04 167.835 1564.08 149.329C1508.12 130.824 1472.45 196.343 1428.79 177.838C1385.13 159.332 1364.22 159.332 1347.62 159.332C1331.02 159.332 1250.46 196.343 1223.4 177.838C1196.35 159.332 1160.68 144.328 1107.18 159.332C1053.68 174.337 971.892 208.346 922.082 187.84C872.272 167.334 856.353 197.722 807.703 208.346C739 223.351 755.011 216.349 717.5 187.84C679.989 159.332 662 167 650.279 177.838C615.875 209.647 566.647 196.343 535.9 187.84C505.153 179.338 506.383 177.838 450.423 187.84C394.463 197.843 411.067 223.351 386.469 208.346C361.872 193.342 350.803 196.343 317.596 208.346C284.39 220.35 282.545 235.354 263.482 223.351C244.419 211.347 225.97 196.343 216.131 196.343C208.26 196.343 179.645 204.345 166.321 208.346C149.513 198.177 109.747 179.838 85.149 187.84C54.4019 197.843 39.0284 203.345 31.0342 196.343C23.04 189.341 -31.0748 174.337 -41.5288 177.838C-51.9828 181.339 -64.2816 193.342 -128.85 187.84Z" fill="url(#paint0_linear)"/>
</g>
<defs>
<filter id="filter0_d" x="-250" y="-2.38419e-07" width="2093" height="2544" filterUnits="userSpaceOnUse" color-interpolation-filters="sRGB">
<feFlood flood-opacity="0" result="BackgroundImageFix"/>
<feColorMatrix in="SourceAlpha" type="matrix" values="0 0 0 0 0 0 0 0 0 0 0 0 0 0 0 0 0 0 127 0"/>
<feOffset dx="54" dy="-33"/>
<feGaussianBlur stdDeviation="56.5"/>
<feColorMatrix type="matrix" values="0 0 0 0 0 0 0 0 0 0.440417 0 0 0 0 0.629167 0 0 0 0.07 0"/>
<feBlend mode="normal" in2="BackgroundImageFix" result="effect1_dropShadow"/>
<feBlend mode="normal" in="SourceGraphic" in2="effect1_dropShadow" result="shape"/>
</filter>
<linearGradient id="paint0_linear" x1="742.5" y1="2446.39" x2="742.5" y2="146" gradientUnits="userSpaceOnUse">
<stop offset="0.0668585" stop-color="#005583"/>
<stop offset="0.501203" stop-color="#0199EC"/>
<stop offset="1" stop-color="#62C8FF"/>
</linearGradient>
</defs>
</svg>
